<svg xmlns="http://www.w3.org/2000/svg" viewBox="0 0 227.94 253.16"><defs><style>.cls-1{fill:#f82e11;}.cls-2{fill:#fff;}.cls-3{fill:#fbb8af;}</style></defs><title>Asset 1</title><g id="Layer_2" data-name="Layer 2"><g id="Layer_1-2" data-name="Layer 1"><path class="cls-1" d="M146,26.29l2.44-19.63a3.35,3.35,0,0,0-5.25-3.15l-11,7.77a3.35,3.35,0,0,1-4.11-.2L116.15.81a3.34,3.34,0,0,0-4.36,0L99.86,11.08a3.35,3.35,0,0,1-4.11.2l-11-7.77a3.35,3.35,0,0,0-5.25,3.15l2.44,19.63a4.05,4.05,0,0,1-2.77,4.35A114,114,0,0,0,.05,142.58C1.81,203.27,51.64,252.3,112.34,253.15A114,114,0,0,0,148.8,30.65,4.07,4.07,0,0,1,146,26.29Z"/><path class="cls-2" d="M118.09,40.62a39.66,39.66,0,0,1,17.29-2.21c50.58,4.26,80.33,47.72,80.33,100.66,0,55.76-34.1,101-88.49,101-49.16,0-53.9-165-14.2-196.83A19.51,19.51,0,0,1,118.09,40.62Z"/><path class="cls-3" d="M132.19,49.27a17.44,17.44,0,0,0-9.81,3.08c-29.71,19.81-32.31,129.89-7.78,165.5a26.29,26.29,0,0,0,14.59,10.67,12.26,12.26,0,0,0,3,.5c45.62,0,72.33-40.25,72.33-89.88S177.84,49.27,132.19,49.27Z"/><circle class="cls-1" cx="124.87" cy="166.04" r="11.3"/><circle class="cls-1" cx="147.47" cy="139.51" r="11.3"/><circle class="cls-1" cx="124.87" cy="113.45" r="11.3"/><circle class="cls-1" cx="148.24" cy="83.14" r="13.08"/><circle class="cls-1" cx="148.24" cy="194.36" r="13.08"/><circle class="cls-1" cx="172.69" cy="106.03" r="11.36"/><circle class="cls-1" cx="180.91" cy="139.51" r="11.35"/><circle class="cls-1" cx="172.69" cy="171.96" r="11.35"/></g></g></svg>